<svg xmlns="http://www.w3.org/2000/svg" viewBox="0 0 1200 800">
<defs>
 <linearGradient id="sky" x2="0" y2="1"><stop stop-color="#5d452d"/><stop offset=".55" stop-color="#bca06d"/><stop offset="1" stop-color="#645538"/></linearGradient>
 <radialGradient id="light"><stop stop-color="#f5e3aa" stop-opacity=".65"/><stop offset="1" stop-color="#b89762" stop-opacity="0"/></radialGradient>
 <linearGradient id="floor" x2="0" y2="1"><stop stop-color="#5e5d42"/><stop offset="1" stop-color="#1b2923"/></linearGradient>
 <linearGradient id="cloth" x2="1" y2="1"><stop stop-color="#26312b"/><stop offset="1" stop-color="#101c18"/></linearGradient>
 <linearGradient id="cloth2" x2="1" y2="1"><stop stop-color="#756d4c"/><stop offset="1" stop-color="#252c21"/></linearGradient>
 <pattern id="tiles" width="100" height="70" patternUnits="userSpaceOnUse"><path d="M0 0h100v70H0Z" fill="none" stroke="#bcab7760" stroke-width="1"/></pattern>
 <filter id="grain"><feTurbulence type="fractalNoise" baseFrequency=".7" numOctaves="3" stitchTiles="stitch"/><feColorMatrix type="saturate" values="0"/><feComponentTransfer><feFuncA type="linear" slope=".085"/></feComponentTransfer><feBlend in="SourceGraphic" mode="soft-light"/></filter>
</defs>
<g filter="url(#grain)">
<path fill="url(#sky)" d="M0 0h1200v800H0z"/>
<ellipse cx="620" cy="325" rx="470" ry="350" fill="url(#light)"/>
<circle cx="620" cy="280" r="113" fill="#e4c37e" opacity=".6"/>
<g fill="#3f4936" opacity=".35"><path d="m0 380 140-120 150 80 135-150 170 160 140-110 125 70 145-90 195 90v280H0Z"/><path d="m0 450 140-80 110 30 100-70 175 135 190-90 200 50 190-60 95 90v120H0Z"/></g>
<g fill="#333e2d" opacity=".65"><path d="M-30 340 170 183l220 157-50-7-169-104L20 341Z"/><path d="M26 332h298v19H26zM57 351h15v143H57zM272 351h15v143h-15zM18 483h311v18H18z"/><path d="m818 345 170-127 188 127-42-6-146-85-133 87Z"/><path d="M850 341h289v15H850zM878 354h13v142h-13zM1100 354h13v142h-13zM851 484h284v18H851z"/></g>
<path d="M0 514Q610 475 1200 520V800H0Z" fill="url(#floor)"/>
<path d="M0 580h1200M0 644h1200M0 741h1200M610 509 384 800M660 509l243 291M520 509 0 740M735 512l465 200" stroke="#b6ab6f" opacity=".12" fill="none"/>
<ellipse cx="390" cy="656" rx="135" ry="18" fill="#0f1c16" opacity=".5"/><ellipse cx="805" cy="640" rx="126" ry="16" fill="#0f1c16" opacity=".5"/>
<!-- Original silhouettes: a posed art direction study, not game footage. -->
<g transform="translate(340 220)">
 <path d="m29 106 8-31 34-1 13 27-21 32Z" fill="#927747"/>
 <path d="M26 78q-4-32 25-35 29 0 29 26l-6 22-43-1Z" fill="#16261e"/>
 <path d="m23 58 44-21 13 20-8 18-47 2Z" fill="#1b2d22"/><path d="m61 46 30-23-7 44Z" fill="#25382a"/>
 <path d="m35 111-35 16-32 101 51 33 62-7 37-55-24-70-24-21Z" fill="url(#cloth)"/>
 <path d="m11 129-29 22-30 65-43-18-13 23 59 24 23-5 54-70Z" fill="#25372a"/>
 <path d="m-87 199-14-17-14 2 8 29 15 9Z" fill="#907545"/>
 <path d="m89 133 39 23 41-10 45-29 9 13-39 46-42 13-43-7Z" fill="#202f25"/>
 <path d="m211 117 7-27 7-5 3 22 12-17 5 3-7 25-13 13Z" fill="#ab8a50"/>
 <path d="m20 244 63-8 19 59-67 15-32-22Z" fill="#8d7944"/><path d="m10 255 81-7m-74 20 78-8m-72 21 76-10" stroke="#c5a363" stroke-width="2" opacity=".45"/>
 <path d="m8 286 37 7-18 79-70 65-22-14 43-71Z" fill="#1a2a20"/>
 <path d="m61 287 39-4 27 59 3 76-24 3-24-67-40-27Z" fill="#14241b"/>
 <path d="m-57 420 22 7-6 13-52 5-3-10Z" fill="#4b5032"/>
 <path d="m107 412 23 1 12 18 26 5-2 11-60-5Z" fill="#4b5032"/>
 <path d="m36 116 14 26 18-29m-38 27 4 78" fill="none" stroke="#9e864f" stroke-width="2" opacity=".5"/>
</g>
<g transform="translate(847 231) scale(-.95 .95)">
 <path d="m34 105 3-30 33-1 13 27-21 32Z" fill="#a08c5a"/>
 <path d="M28 78q-5-32 24-34 29 0 29 26l-8 21-40-1Z" fill="#283829"/>
 <path d="m24 59 43-19 11 21-7 13-46 1Z" fill="#4a4c32"/>
 <path d="m35 111-35 16-22 90 50 45 62-8 27-65-23-60-24-21Z" fill="url(#cloth2)"/>
 <path d="m8 130-35 31-37 31-47-37-17 16 53 56 22 4 81-61Z" fill="#4e5639"/>
 <path d="m-108 156-8-24-11-9-8 4 7 33 13 14Z" fill="#a08c5a"/>
 <path d="m85 131 24 21 20 52 40-9 4 23-53 13-21-9-34-55Z" fill="#3c4a30"/>
 <path d="m167 196 24-8 15 6-9 14-24 9Z" fill="#a08c5a"/>
 <path d="m25 245 66-6 12 46-39 28-38-13-17-30Z" fill="#3c3924"/><path d="m17 256 79-6m-73 18 76-7m-70 18 70-7" stroke="#c0a264" stroke-width="2" opacity=".35"/>
 <path d="m20 286 36 4-3 62-69 65-24-16 53-63Z" fill="#35412b"/>
 <path d="m67 288 35-8 19 77 47 55-25 15-64-55-31-54Z" fill="#283a28"/>
 <path d="m-30 399 25 9-12 18-47 9-5-12Z" fill="#555738"/>
 <path d="m145 411 22-3 19 19 27 1v12l-64 1Z" fill="#555738"/>
 <path d="m37 117 15 23 17-25" fill="none" stroke="#c5af74" stroke-width="2" opacity=".5"/>
</g>
<g fill="#e9d099" opacity=".4"><circle cx="275" cy="390" r="2"/><circle cx="603" cy="468" r="2"/><circle cx="640" cy="363" r="1.5"/><circle cx="980" cy="300" r="1"/><circle cx="560" cy="540" r="1.5"/></g>
<path d="M0 0v800h1200V0H0zm45 45h1110v710H45Z" fill="#122019" opacity=".17"/>
</g></svg>
